<svg id="Capa_1" enable-background="new 0 0 512.002 512.002" height="512" viewBox="0 0 512.002 512.002" width="512" xmlns="http://www.w3.org/2000/svg"><g id="XMLID_105_"><path id="XMLID_562_" d="m465.298 212.028c5.896-45.4-18.087-89.78-59.989-109.571-23.542-11.12-49.486-12.938-73.257-6.476-12.702-11.341-28.312-19.169-44.943-22.52-14.058-43.569-54.699-73.461-101.04-73.461s-86.982 29.885-101.038 73.455c-44.28 8.854-76.899 48.107-76.899 93.914 0 27.502 11.546 53.177 31.885 71.356-.723 4.768-1.087 9.596-1.087 14.42 0 39.807 24.408 75.137 61.214 89.345 6.916 15.698 17.945 29.136 32.112 39.062 13.079 9.165 28.063 14.746 43.813 16.41v66.87c0 5.522 4.478 10 10 10s10-4.478 10-10v-36.442c7.709 12.119 18.001 22.197 30.236 29.64l-18.751 39.7c-2.358 4.993-.223 10.954 4.771 13.312 1.38.652 2.833.96 4.264.96 3.748 0 7.342-2.117 9.049-5.731l18.748-39.693c9.923 3.466 20.278 5.227 30.724 5.227 5.294 0 10.611-.451 15.905-1.36 17.05-2.926 32.762-10.365 45.719-21.605 2.344.171 4.68.255 7.004.255 36.696-.002 70.518-21.052 86.505-54.899 2.06-4.361 3.792-8.884 5.176-13.502 26.153-7.751 47.56-26.036 59.305-50.904 19.562-41.42 6.831-90.845-29.426-117.762zm-348.26 118.978c-1.072-2.803-3.346-4.975-6.193-5.919-31.053-10.293-51.916-39.204-51.916-71.941 0-5.446.586-10.898 1.742-16.206.815-3.741-.577-7.619-3.586-9.987-18.4-14.482-28.954-36.2-28.954-59.583 0-38.015 28.384-70.324 66.022-75.154 4.066-.522 7.401-3.472 8.416-7.443 9.746-38.138 44.082-64.773 83.5-64.773s73.754 26.635 83.499 64.771c1.015 3.972 4.35 6.921 8.415 7.443 11.622 1.492 22.782 5.754 32.496 12.274-10.237 5.388-19.697 12.49-27.901 21.237-31.078-7.735-63.371.875-86.509 21.304v-37.972c0-5.522-4.478-10-10-10s-10 4.478-10 10v56.837c-13.85-14.894-33.361-23.611-54.434-23.611-5.522 0-10 4.478-10 10s4.478 10 10 10c19.434 0 37.06 10.137 46.849 26.694-6.212 18.907-6.357 39.085-.459 58.027-13.025-10.378-29.325-16.234-46.39-16.234-5.522 0-10 4.478-10 10s4.478 10 10 10c16.187 0 31.422 7.22 41.723 19.509-14.852 33.138-9.662 71.34 12.711 99.132v8.386c-26.363-3.658-49.367-21.534-59.031-46.791zm359.6-9.759c-9.986 21.144-28.804 36.273-51.627 41.51-3.731.856-6.646 3.768-7.508 7.497-1.222 5.292-3.021 10.474-5.347 15.4-13.981 29.6-45.188 46.835-77.668 42.877-2.979-.357-5.962.63-8.128 2.707-19.525 18.711-47.959 25.05-73.36 17.098l31.004-65.642c6.21-13.145 17.167-23.087 30.854-27.992 13.687-4.906 28.465-4.188 41.612 2.022 4.994 2.357 10.954.223 13.312-4.771 2.358-4.993.223-10.954-4.771-13.312-19.414-9.17-40.832-9.167-59.359-1.781l16.139-34.17.002-.003c6.21-13.146 17.168-23.089 30.854-27.994 13.688-4.904 28.465-4.188 41.613 2.022 4.996 2.357 10.954.223 13.312-4.771 2.358-4.993.223-10.954-4.771-13.312-17.978-8.491-38.186-9.472-56.901-2.767-.823.295-1.629.62-2.437.941l24.309-51.466c2.358-4.993.223-10.954-4.771-13.312-4.996-2.36-10.953-.223-13.312 4.771l-24.33 51.511c-6.064-19.001-19.666-35.544-39.081-44.715-4.996-2.358-10.953-.223-13.312 4.771-2.358 4.993-.223 10.954 4.771 13.312 27.136 12.818 38.787 45.32 25.976 72.458l-16.124 34.137c-.265-.828-.526-1.656-.821-2.479-6.708-18.717-20.303-33.7-38.281-42.191-4.995-2.361-10.954-.223-13.312 4.771-2.358 4.993-.223 10.954 4.771 13.312 13.146 6.21 23.089 17.168 27.994 30.854 4.905 13.688 4.188 28.466-2.022 41.613v.001l-31.002 65.638c-22.275-14.566-35.442-40.555-33.393-67.519.227-2.991-.9-5.927-3.072-7.997-23.683-22.569-30.2-57.622-16.219-87.222 2.327-4.927 5.186-9.607 8.497-13.911 2.335-3.034 2.731-7.136 1.022-10.562-10.453-20.954-10.721-45.099-.734-66.242 12.79-27.079 39.989-43.431 68.608-43.431 7.709 0 15.527 1.188 23.188 3.673 3.892 1.264 8.174.022 10.788-3.136 25.1-30.321 67.521-39.739 103.164-22.907 35.643 16.835 55.313 55.583 47.837 94.229-.778 4.024.978 8.116 4.432 10.324 31.973 20.446 43.839 61.783 27.604 96.156z"/><path id="XMLID_564_" d="m99.902 119.452c-.24-.003.241-.005 0-.005-25.883-.008-47.124 20.248-47.859 46.12-.301 10.602 2.874 20.445 8.468 28.479 3.598 5.167 11.72 1.831 10.763-4.393-.426-2.768-.647-5.602-.647-8.489 0-22.242 13.086-41.427 31.98-50.277 5.782-2.708 3.679-11.338-2.705-11.435z"/><path id="XMLID_565_" d="m256.463 168.452c-.24-.003.241-.005 0-.005-25.883-.008-47.124 20.248-47.859 46.12-.301 10.602 2.874 20.445 8.468 28.479 3.598 5.167 11.721 1.831 10.763-4.393-.426-2.768-.647-5.602-.647-8.489 0-22.242 13.086-41.427 31.98-50.277 5.781-2.708 3.679-11.338-2.705-11.435z"/></g></svg>